<svg width="34" height="44" viewBox="0 0 34 44" fill="none" xmlns="http://www.w3.org/2000/svg">
<path fill-rule="evenodd" clip-rule="evenodd" d="M4 6C4 4.89543 4.89543 4 6 4H18.5V13.5V15.5H20.5H30V38C30 39.1046 29.1046 40 28 40H6C4.89543 40 4 39.1046 4 38V6ZM27.1716 11.5L22.5 6.82843V11.5H27.1716ZM6 0C2.68629 0 0 2.68629 0 6V38C0 41.3137 2.68629 44 6 44H28C31.3137 44 34 41.3137 34 38V13.5V12.6716L33.4142 12.0858L21.9142 0.585786L21.3284 0H20.5H6ZM26 20H8V23H26V20ZM8 26H26V29H8V26ZM26 32H8V35H26V32Z" fill="#370AEB"/>
</svg>
